<svg id="Layer_1" data-name="Layer 1" xmlns="http://www.w3.org/2000/svg" viewBox="0 0 288.98 87.38"><defs><style>.cls-1{fill:#8bc53f;}.cls-2{fill:#1b75bb;}.cls-3{fill:#0a0909;}</style></defs><title>trash-ninja-logo</title><path class="cls-1" d="M680.62,347.39h-9.51v-5.14h24.67v5.14h-9.51v24.84h-5.65Z" transform="translate(-601.8 -319.34)"/><path class="cls-1" d="M699.21,351.12l.39,2.44c1.62-2.61,3.81-3,5.95-3a8.06,8.06,0,0,1,5.44,2l-2.36,4.54a5.21,5.21,0,0,0-3.77-1.37c-2.74,0-5.26,1.46-5.26,5.36v11.13h-5.23V351.12Z" transform="translate(-601.8 -319.34)"/><path class="cls-1" d="M729.7,351.12h5v21.11h-4.92l-.26-3.08c-1.2,2.48-4.5,3.68-6.85,3.72-6.25.05-10.88-3.81-10.88-11.22s4.84-11.09,11-11a7.75,7.75,0,0,1,6.72,3.43ZM717,361.65a6,6,0,0,0,6.25,6.43c8.22,0,8.22-12.81,0-12.81A6,6,0,0,0,717,361.65Z" transform="translate(-601.8 -319.34)"/><path class="cls-1" d="M752.92,356.73a7.16,7.16,0,0,0-5.23-1.89c-2.48,0-3.85.77-3.85,2.1s1.24,2.14,3.94,2.32c4,.25,9,1.15,9,6.76,0,3.73-3,6.94-9.08,6.94-3.34,0-6.68-.56-9.76-3.77l2.57-3.72c1.5,1.67,4.92,2.91,7.28,2.95,2,0,3.81-1,3.81-2.53s-1.2-2.05-4.2-2.22c-4-.3-8.73-1.76-8.73-6.56s5-6.59,8.91-6.59c3.29,0,5.78.64,8.22,2.78Z" transform="translate(-601.8 -319.34)"/><path class="cls-1" d="M765.38,342.25V354a7.8,7.8,0,0,1,6.59-3.17c6,0,8.66,4.07,8.66,10.28v11.13H775.4V361.14c0-3.85-2-5.48-4.8-5.48-3.08,0-5.22,2.61-5.22,5.78v10.79h-5.23v-30Z" transform="translate(-601.8 -319.34)"/><path class="cls-2" d="M813.77,342.21h5.66v30h-3.51v0L800.16,352v20.21H794.5v-30h4.59l14.68,18.59Z" transform="translate(-601.8 -319.34)"/><path class="cls-2" d="M829.92,345.17c0,4.06-6.17,4.06-6.17,0S829.92,341.1,829.92,345.17ZM824.23,351v21.2h5.22V351Z" transform="translate(-601.8 -319.34)"/><path class="cls-2" d="M849.71,372.23V361.18c0-3.21-1.76-5.65-5.1-5.65s-5.4,2.7-5.4,5.91v10.79H834V351.08h4.67l.34,2.86a9.55,9.55,0,0,1,6.94-3.16c5,0,8.95,3.72,8.95,10.36v11.09Z" transform="translate(-601.8 -319.34)"/><path class="cls-2" d="M864.57,351v25.7c0,5.22-2.27,8.61-7,8.61a8.43,8.43,0,0,1-4.67-1.42l1.88-4.07a5.22,5.22,0,0,0,2.53.6c1.71-.08,2.1-1.41,2.1-3.72V351Zm-5.65-5.91c0,4.07,6.16,4.07,6.16,0S858.92,341.05,858.92,345.12Z" transform="translate(-601.8 -319.34)"/><path class="cls-2" d="M885.77,351.12h5v21.11h-4.93l-.25-3.08c-1.2,2.48-4.5,3.68-6.85,3.72-6.26.05-10.88-3.81-10.88-11.22s4.84-11.09,11-11A7.76,7.76,0,0,1,885.6,354Zm-12.68,10.53a6.06,6.06,0,0,0,6.26,6.43c8.22,0,8.22-12.81,0-12.81A6,6,0,0,0,873.09,361.65Z" transform="translate(-601.8 -319.34)"/><path class="cls-2" d="M682.23,385.33l-2.3-9.07h1.24l1.08,4.59c.27,1.13.51,2.26.67,3.14h0c.14-.9.43-2,.74-3.15l1.21-4.58h1.22l1.11,4.6c.25,1.08.5,2.16.63,3.11h0c.19-1,.44-2,.72-3.13l1.2-4.58H691l-2.57,9.07h-1.23l-1.14-4.72a28,28,0,0,1-.59-3h0a27.15,27.15,0,0,1-.7,3l-1.29,4.72Z" transform="translate(-601.8 -319.34)"/><path class="cls-2" d="M692.32,382.29a2.09,2.09,0,0,0,2.24,2.26,4.27,4.27,0,0,0,1.8-.33l.2.85a5.45,5.45,0,0,1-2.17.4,3,3,0,0,1-3.2-3.29c0-2,1.16-3.51,3.06-3.51,2.12,0,2.69,1.87,2.69,3.07a5.29,5.29,0,0,1,0,.55Zm3.47-.85a1.68,1.68,0,0,0-1.64-1.92,2,2,0,0,0-1.82,1.92Z" transform="translate(-601.8 -319.34)"/><path class="cls-2" d="M709,381.35c-.07-1.27-.15-2.79-.13-3.92h0c-.31,1.06-.69,2.2-1.15,3.45l-1.6,4.4h-.89L703.67,381c-.43-1.28-.79-2.45-1-3.53h0c0,1.13-.1,2.65-.18,4l-.24,3.89h-1.12l.63-9.07h1.5l1.55,4.39c.37,1.12.68,2.11.91,3.06h0c.23-.92.55-1.92,1-3.06l1.61-4.39h1.5l.56,9.07h-1.14Z" transform="translate(-601.8 -319.34)"/><path class="cls-2" d="M715.78,385.33l-.09-.82h0a2.45,2.45,0,0,1-2,1,1.85,1.85,0,0,1-2-1.87c0-1.57,1.4-2.44,3.92-2.42v-.14a1.34,1.34,0,0,0-1.48-1.51,3.22,3.22,0,0,0-1.7.49l-.27-.78a4,4,0,0,1,2.14-.58c2,0,2.48,1.36,2.48,2.67v2.43a9.15,9.15,0,0,0,.11,1.56Zm-.17-3.32c-1.3,0-2.76.2-2.76,1.47a1,1,0,0,0,1.11,1.13,1.63,1.63,0,0,0,1.58-1.09,1.27,1.27,0,0,0,.07-.38Z" transform="translate(-601.8 -319.34)"/><path class="cls-2" d="M719.83,381.81h0c.16-.23.39-.52.58-.74l1.91-2.25h1.43l-2.52,2.68,2.87,3.83h-1.44l-2.25-3.12-.61.67v2.45h-1.17v-9.56h1.17Z" transform="translate(-601.8 -319.34)"/><path class="cls-2" d="M725.64,382.29a2.09,2.09,0,0,0,2.23,2.26,4.32,4.32,0,0,0,1.81-.33l.2.85a5.45,5.45,0,0,1-2.17.4,3,3,0,0,1-3.2-3.29c0-2,1.16-3.51,3.06-3.51,2.12,0,2.69,1.87,2.69,3.07a5.29,5.29,0,0,1,0,.55Zm3.47-.85a1.68,1.68,0,0,0-1.64-1.92,2,2,0,0,0-1.82,1.92Z" transform="translate(-601.8 -319.34)"/><path class="cls-2" d="M736,385.33v-3.85l-2.87-5.22h1.34l1.28,2.5c.35.69.62,1.24.9,1.88h0c.25-.6.56-1.19.91-1.88l1.31-2.5h1.33l-3,5.21v3.86Z" transform="translate(-601.8 -319.34)"/><path class="cls-2" d="M746.12,382a3.18,3.18,0,0,1-3.24,3.46,3.1,3.1,0,0,1-3.13-3.35,3.19,3.19,0,0,1,3.24-3.46A3.08,3.08,0,0,1,746.12,382Zm-5.17.07c0,1.43.82,2.5,2,2.5s2-1.06,2-2.53c0-1.1-.55-2.5-1.95-2.5S741,380.85,741,382.09Z" transform="translate(-601.8 -319.34)"/><path class="cls-2" d="M753.07,383.56q0,1,.06,1.77h-1l-.07-1.06h0a2.43,2.43,0,0,1-2.15,1.21c-1,0-2.25-.56-2.25-2.85v-3.81h1.18v3.61c0,1.23.38,2.07,1.46,2.07a1.72,1.72,0,0,0,1.56-1.08,1.64,1.64,0,0,0,.11-.6v-4h1.18Z" transform="translate(-601.8 -319.34)"/><path class="cls-2" d="M755,380.85c0-.77,0-1.43,0-2h1l0,1.28h.06a2,2,0,0,1,1.8-1.43,1.18,1.18,0,0,1,.34,0v1.12a1.62,1.62,0,0,0-.41,0,1.65,1.65,0,0,0-1.58,1.52,3,3,0,0,0-.06.55v3.47H755Z" transform="translate(-601.8 -319.34)"/><path class="cls-2" d="M763.51,377.26h-2.76v-1h6.72v1H764.7v8.07h-1.19Z" transform="translate(-601.8 -319.34)"/><path class="cls-2" d="M767.83,380.85c0-.77,0-1.43-.05-2h1l0,1.28h0a2,2,0,0,1,1.81-1.43,1.15,1.15,0,0,1,.33,0v1.12a1.59,1.59,0,0,0-.4,0,1.66,1.66,0,0,0-1.59,1.52,3,3,0,0,0,0,.55v3.47h-1.18Z" transform="translate(-601.8 -319.34)"/><path class="cls-2" d="M775.78,385.33l-.09-.82h0a2.45,2.45,0,0,1-2,1,1.85,1.85,0,0,1-2-1.87c0-1.57,1.4-2.44,3.92-2.42v-.14a1.34,1.34,0,0,0-1.48-1.51,3.22,3.22,0,0,0-1.7.49l-.27-.78a4,4,0,0,1,2.14-.58c2,0,2.48,1.36,2.48,2.67v2.43a9.15,9.15,0,0,0,.11,1.56Zm-.17-3.32c-1.3,0-2.77.2-2.77,1.47a1.06,1.06,0,0,0,1.12,1.13,1.63,1.63,0,0,0,1.58-1.09,1.27,1.27,0,0,0,.07-.38Z" transform="translate(-601.8 -319.34)"/><path class="cls-2" d="M778.5,384.12a3.09,3.09,0,0,0,1.56.47c.87,0,1.27-.43,1.27-1s-.34-.87-1.21-1.19c-1.17-.42-1.73-1.07-1.73-1.85a2,2,0,0,1,2.25-1.91,3.29,3.29,0,0,1,1.6.4l-.29.87a2.48,2.48,0,0,0-1.33-.38c-.7,0-1.1.4-1.1.89s.4.78,1.24,1.1c1.13.43,1.71,1,1.71,2,0,1.14-.89,2-2.43,2a3.66,3.66,0,0,1-1.83-.45Z" transform="translate(-601.8 -319.34)"/><path class="cls-2" d="M784,375.77h1.18v4.07h0a2.12,2.12,0,0,1,.85-.83,2.34,2.34,0,0,1,1.21-.34c.87,0,2.27.54,2.27,2.79v3.87h-1.18v-3.74c0-1-.39-1.94-1.51-1.94a1.71,1.71,0,0,0-1.59,1.19,1.35,1.35,0,0,0-.08.56v3.93H784Z" transform="translate(-601.8 -319.34)"/><path class="cls-2" d="M794.37,376.38a16.4,16.4,0,0,1,2.49-.19,5.18,5.18,0,0,1,3.67,1.13,4.17,4.17,0,0,1,1.28,3.26,4.85,4.85,0,0,1-1.3,3.53,5.59,5.59,0,0,1-4,1.3,20.94,20.94,0,0,1-2.12-.1Zm1.17,8a7.87,7.87,0,0,0,1.18.06c2.51,0,3.87-1.4,3.87-3.85,0-2.14-1.2-3.5-3.68-3.5a6.49,6.49,0,0,0-1.37.12Z" transform="translate(-601.8 -319.34)"/><path class="cls-2" d="M804.62,377a.7.7,0,0,1-.76.72.7.7,0,0,1-.71-.72.72.72,0,0,1,.74-.74A.71.71,0,0,1,804.62,377Zm-1.32,8.34v-6.51h1.18v6.51Z" transform="translate(-601.8 -319.34)"/><path class="cls-2" d="M806.29,384.12a3.06,3.06,0,0,0,1.56.47c.86,0,1.26-.43,1.26-1s-.33-.87-1.21-1.19c-1.17-.42-1.72-1.07-1.72-1.85a2,2,0,0,1,2.25-1.91,3.32,3.32,0,0,1,1.6.4l-.3.87a2.42,2.42,0,0,0-1.33-.38c-.7,0-1.09.4-1.09.89s.39.78,1.24,1.1c1.13.43,1.71,1,1.71,2,0,1.14-.89,2-2.44,2A3.72,3.72,0,0,1,806,385Z" transform="translate(-601.8 -319.34)"/><path class="cls-2" d="M815.39,385.33l-.1-.82h0a2.42,2.42,0,0,1-2,1,1.85,1.85,0,0,1-2-1.87c0-1.57,1.4-2.44,3.92-2.42v-.14a1.34,1.34,0,0,0-1.48-1.51,3.22,3.22,0,0,0-1.7.49l-.27-.78a4,4,0,0,1,2.14-.58c2,0,2.48,1.36,2.48,2.67v2.43a8.23,8.23,0,0,0,.11,1.56Zm-.18-3.32c-1.29,0-2.76.2-2.76,1.47a1.06,1.06,0,0,0,1.12,1.13,1.63,1.63,0,0,0,1.58-1.09,1.26,1.26,0,0,0,.06-.38Z" transform="translate(-601.8 -319.34)"/><path class="cls-2" d="M818.27,380.94c0-.83,0-1.5,0-2.12h1.06l.06,1.12h0a2.56,2.56,0,0,1,2.32-1.27c1.57,0,2.76,1.33,2.76,3.31,0,2.34-1.43,3.5-3,3.5a2.27,2.27,0,0,1-2-1h0V388h-1.17Zm1.17,1.74a2.43,2.43,0,0,0,.06.49,1.82,1.82,0,0,0,1.77,1.38c1.26,0,2-1,2-2.51,0-1.31-.68-2.43-1.94-2.43a1.9,1.9,0,0,0-1.79,1.47,1.93,1.93,0,0,0-.08.48Z" transform="translate(-601.8 -319.34)"/><path class="cls-2" d="M825.93,380.94c0-.83,0-1.5,0-2.12h1.06l.06,1.12h0a2.57,2.57,0,0,1,2.32-1.27c1.58,0,2.76,1.33,2.76,3.31,0,2.34-1.43,3.5-3,3.5a2.28,2.28,0,0,1-2-1h0V388h-1.18Zm1.18,1.74a2.46,2.46,0,0,0,0,.49,1.83,1.83,0,0,0,1.78,1.38c1.25,0,2-1,2-2.51,0-1.31-.69-2.43-1.94-2.43a1.89,1.89,0,0,0-1.79,1.47,1.93,1.93,0,0,0-.08.48Z" transform="translate(-601.8 -319.34)"/><path class="cls-2" d="M834.26,382.29a2.08,2.08,0,0,0,2.23,2.26,4.32,4.32,0,0,0,1.81-.33l.2.85a5.45,5.45,0,0,1-2.17.4,3,3,0,0,1-3.2-3.29c0-2,1.15-3.51,3-3.51,2.13,0,2.7,1.87,2.7,3.07a5.29,5.29,0,0,1,0,.55Zm3.47-.85a1.69,1.69,0,0,0-1.64-1.92,2,2,0,0,0-1.82,1.92Z" transform="translate(-601.8 -319.34)"/><path class="cls-2" d="M844,385.33l-.09-.82h0a2.42,2.42,0,0,1-2,1,1.86,1.86,0,0,1-2-1.87c0-1.57,1.4-2.44,3.92-2.42v-.14a1.34,1.34,0,0,0-1.48-1.51,3.22,3.22,0,0,0-1.7.49l-.27-.78a4.06,4.06,0,0,1,2.15-.58c2,0,2.47,1.36,2.47,2.67v2.43a9.15,9.15,0,0,0,.11,1.56Zm-.17-3.32c-1.29,0-2.76.2-2.76,1.47a1.05,1.05,0,0,0,1.12,1.13,1.63,1.63,0,0,0,1.57-1.09,1.27,1.27,0,0,0,.07-.38Z" transform="translate(-601.8 -319.34)"/><path class="cls-2" d="M846.84,380.85c0-.77,0-1.43-.06-2h1l0,1.28h0a2,2,0,0,1,1.81-1.43,1.11,1.11,0,0,1,.33,0v1.12a1.59,1.59,0,0,0-.4,0,1.66,1.66,0,0,0-1.59,1.52,3,3,0,0,0,0,.55v3.47h-1.17Z" transform="translate(-601.8 -319.34)"/><path class="cls-2" d="M610.72,388.62l-3.61-1a2.76,2.76,0,0,0-.52-.25,10.37,10.37,0,0,1-3.14-1.56,3.49,3.49,0,0,1-1.65-3.16l.39-1.37a15.74,15.74,0,0,1,1.43-2.18,1.41,1.41,0,0,0,.32-.94,4.07,4.07,0,0,1,.4-1.8,9,9,0,0,1,3.72-3.7,5.27,5.27,0,0,1,3.46-.92,11.89,11.89,0,0,1,3.24.93,4.32,4.32,0,0,1,1.8,1.59A11,11,0,0,1,618,377c.57,1.78.85,3.56-.28,5.32a.78.78,0,0,0-.08.56,17.84,17.84,0,0,1,.12,3.43l-.35,1.24c-.52,1.08-1.68,1.15-2.49,1.83-.12,0-.1-.32-.33-.31A21.28,21.28,0,0,1,610.72,388.62Zm.66-11.47c-1.13-.75-1.73-.56-2.65.88a6.22,6.22,0,0,0,1.2,1.14c.54-.61,1.38-.8,1.61-1.7.22.5.53,1,.18,1.62.5.1.88.54,1.45.45a4.15,4.15,0,0,0,.91-1.09c-.69-.09-.41-1.12-1.1-1.24s-1.07-.29-1.65-.45Zm2.8,5.21.37-.56a7,7,0,0,0-.56-1.89,5.54,5.54,0,0,0-1.52.5c0,.79.48,1.41.52,2.23-.52-.11-1.08,0-1.26-.72a6.5,6.5,0,0,0-1.06,1,5.59,5.59,0,0,0,.4,1.53.58.58,0,0,1,.81-.3,1,1,0,0,0,1.09-.33,10.58,10.58,0,0,0,1.18-1.31Zm-4.4,1a2.87,2.87,0,0,0,.38-1.49,6.51,6.51,0,0,0-1.47-.49,5.33,5.33,0,0,1-1.47-.57C607.51,383.07,608.14,383.69,609.78,383.36Zm-1.41-2.28c.07-.66.51-.71,1-.68-.2-.47-.15-.95-.45-1.31a6.27,6.27,0,0,0-1.31-.39c.08.59-.63.9-.43,1.49A1.37,1.37,0,0,0,608.37,381.08Z" transform="translate(-601.8 -319.34)"/><path class="cls-2" d="M616,372.81a11.61,11.61,0,0,0-5.53-1.58c0-.75.28-1,1-1a7.83,7.83,0,0,1,3.76.95,3.9,3.9,0,0,1,.71.42C616.25,371.86,616.39,372.2,616,372.81Z" transform="translate(-601.8 -319.34)"/><path class="cls-2" d="M614.05,384.23a.56.56,0,0,1-.41.15l0-.09.41-.14Z" transform="translate(-601.8 -319.34)"/><path class="cls-2" d="M613.64,384.38c-.06,0-.13.07-.19,0s.1-.07.16-.09Z" transform="translate(-601.8 -319.34)"/><path class="cls-2" d="M614.18,384.1a.53.53,0,0,1,0,.12h-.1l0-.08Z" transform="translate(-601.8 -319.34)"/><path class="cls-2" d="M611.45,377.31l-.07-.15Z" transform="translate(-601.8 -319.34)"/><path class="cls-2" d="M611.53,377.46l-.07-.15Z" transform="translate(-601.8 -319.34)"/><path class="cls-3" d="M626.51,397.94a17.25,17.25,0,0,1-1.09-4.25,32,32,0,0,1-.8-6.9,6.74,6.74,0,0,1,4-6.53,37,37,0,0,1,4-1.57c.48.06,1,.13,1.44.17l7.61.62,9.65.74a20.45,20.45,0,0,0,1.08,4.08,4.38,4.38,0,0,0,3.67,3,5.32,5.32,0,0,0,2.91-.72c1-.53,2-1.09,3.06-1.64.25.53.51,1.06.76,1.6.59,1.27.83,2.67,1.32,4-3.74,2.49-7.69,4.52-12.28,4.85a8.11,8.11,0,0,1-6.83-2.95,17.68,17.68,0,0,1-2.92-4.78,14.74,14.74,0,0,0,3.87-1.06c-3.5,1-7.18,1.13-10.67,2.16-.32.1-.64.21-1,.34a3.9,3.9,0,0,0-2.64,4.85c.24,1.21.56,2.41.85,3.62C630.55,397.85,628.57,398.49,626.51,397.94Z" transform="translate(-601.8 -319.34)"/><path class="cls-2" d="M651.34,380.22l-9.65-.74-7.61-.62c-.48,0-1-.11-1.44-.17-.08-.74-.16-1.48-.23-2.22l14.53,1.17,4,.32C651.11,378.72,651.22,379.47,651.34,380.22Z" transform="translate(-601.8 -319.34)"/><path class="cls-3" d="M663.64,384.53a12.25,12.25,0,0,0,3.13-1.46c1.57-.79,1.93-.72,3,.65a15.66,15.66,0,0,1,3.21,8.79,4.45,4.45,0,0,1-.83,2.88c-.56.82-1.14.83-1.74,0a8.3,8.3,0,0,1-1.17-2.61,9.54,9.54,0,0,0-1.17-2.53,2.5,2.5,0,0,0-2.94-1.29A19.86,19.86,0,0,0,663.64,384.53Z" transform="translate(-601.8 -319.34)"/><path class="cls-3" d="M632.59,399.42a13.32,13.32,0,0,0,.63,3.66c.25,1.38.1,1.79-1.16,2.34a15.56,15.56,0,0,1-9.8.89,4.27,4.27,0,0,1-2.4-1.5c-.61-.73-.48-1.28.4-1.64a7.31,7.31,0,0,1,2.66-.46,9.36,9.36,0,0,0,3.31-.64,2.3,2.3,0,0,0,1.65-2.39A17.29,17.29,0,0,0,632.59,399.42Z" transform="translate(-601.8 -319.34)"/><path class="cls-2" d="M632.59,399.42a17.29,17.29,0,0,1-4.71.26,2.47,2.47,0,0,1-1.37-1.74c2.06.55,4-.09,6-.39A2.85,2.85,0,0,1,632.59,399.42Z" transform="translate(-601.8 -319.34)"/><path class="cls-2" d="M663.64,384.53a19.86,19.86,0,0,1,1.5,4.44,2.48,2.48,0,0,1-1,1.55c-.49-1.31-.73-2.71-1.32-4-.25-.54-.51-1.07-.76-1.6A2.12,2.12,0,0,1,663.64,384.53Z" transform="translate(-601.8 -319.34)"/><path class="cls-3" d="M617.93,326.19a18.46,18.46,0,0,1,7.3-5.23,20.7,20.7,0,0,1,27,10.8,2,2,0,0,0,.19.31c.12-.34.21-.6.31-.87a7.89,7.89,0,0,1,8.55-5.11.91.91,0,0,1,.89.88,7.84,7.84,0,0,1-3.9,8l-.86.48A6,6,0,0,1,660,340c.1,1.74-.06,1.93-1.77,1.89a5.51,5.51,0,0,1-3.5-1.32L654,340a20.06,20.06,0,0,1-.82,6A20.79,20.79,0,0,1,646,356.49c-.2.16-.77.32-.44.63s.23,1.35,1.25,1.2a12.18,12.18,0,0,1,9.25,2.21,5.84,5.84,0,0,0,3.93,1.31,3.71,3.71,0,0,1,3.64,2.3,4.07,4.07,0,0,1-4.69,5.64,3.55,3.55,0,0,1-2.95-3.11,2.51,2.51,0,0,0-1.62-2.11,10.19,10.19,0,0,0-6.53-1.63.88.88,0,0,1,.85.75,83,83,0,0,1,1.8,8.71c.28,1.85.37,3.72.54,5.57l-4-.32-14.53-1.17c-.35-2.36-.27-4.75-.39-7.12a8.5,8.5,0,0,0-.09-1.56c-.44,1.68-.44,1.73-2.23,1.67-3.76-.13-7.53-.3-11.29-.52-.49,0-.64.24-.9.46a3.89,3.89,0,0,1-4.32.83,3.93,3.93,0,0,1-2.51-3.63,4,4,0,0,1,3-4.05c2.08-.34,3.69.06,4.75,2.18a1.07,1.07,0,0,0,1.19.72,26,26,0,0,0,6.15-.57,13.3,13.3,0,0,0,3-1.27,3.94,3.94,0,0,0,1.75-2.86c-8.13-1.59-13.87-6.05-17-14,1.81.44,3.38.87,5,1.21,2.62.57,5.14.48,7.34-1.31a5.6,5.6,0,0,0-.54-8.86,3.46,3.46,0,0,0-3-.31,15,15,0,0,1-9,.09c-.32-.1-.61-.12-.53-.57a18.64,18.64,0,0,1,2-6.15A42.22,42.22,0,0,0,633.44,338a49.39,49.39,0,0,0,11.46.34,54.21,54.21,0,0,0,8.2-1.38c.51-.12.63-.36.5-.83-.22-.79-.45-1.58-.62-2.39-.1-.47-.34-.56-.78-.5-.89.15-1.79.28-2.69.38a49.3,49.3,0,0,1-20.09-1.85A42.29,42.29,0,0,1,617.93,326.19Z" transform="translate(-601.8 -319.34)"/><path class="cls-1" d="M617.93,326.19a42.29,42.29,0,0,0,11.49,5.57,49.3,49.3,0,0,0,20.09,1.85c.9-.1,1.8-.23,2.69-.38.44-.06.68,0,.78.5.17.81.4,1.6.62,2.39.13.47,0,.71-.5.83a54.21,54.21,0,0,1-8.2,1.38,49.39,49.39,0,0,1-11.46-.34,42.22,42.22,0,0,1-18.69-7.17A15.48,15.48,0,0,1,617.93,326.19Z" transform="translate(-601.8 -319.34)"/><path class="cls-3" d="M622.44,343c-1.3-2.52-3.62-2.52-5.19-.2a2.39,2.39,0,0,1,1-2.52,2.52,2.52,0,0,1,2.87-.13A2.64,2.64,0,0,1,622.44,343Z" transform="translate(-601.8 -319.34)"/><path d="M657.22,379l-2-.75a2,2,0,0,0-.29-.16,5.9,5.9,0,0,1-1.71-1,2,2,0,0,1-.79-1.88l.29-.75a8.81,8.81,0,0,1,.91-1.18.81.81,0,0,0,.23-.52,2.38,2.38,0,0,1,.31-1,5.17,5.17,0,0,1,2.29-1.94,3.06,3.06,0,0,1,2-.36,6.91,6.91,0,0,1,1.8.69,2.33,2.33,0,0,1,1,1,5.75,5.75,0,0,1,.66,1.62,3.31,3.31,0,0,1-.41,3,.51.51,0,0,0-.07.32,10.62,10.62,0,0,1-.09,2l-.26.69c-.35.6-1,.58-1.5.93-.07,0,0-.19-.18-.2A11.2,11.2,0,0,1,657.22,379Zm.91-6.5c-.61-.48-1-.4-1.54.38a3.39,3.39,0,0,0,.62.7c.34-.32.82-.39,1-.89.1.3.26.59,0,.93.28.08.47.35.8.32a2.06,2.06,0,0,0,.57-.57c-.39-.09-.18-.66-.57-.76s-.6-.21-.92-.33Zm1.36,3.1.23-.3a3.72,3.72,0,0,0-.23-1.1,3.3,3.3,0,0,0-.89.21c0,.45.21.82.19,1.29-.29-.08-.61,0-.68-.47a3.94,3.94,0,0,0-.65.51,3.6,3.6,0,0,0,.15.89.34.34,0,0,1,.48-.14.58.58,0,0,0,.64-.13,5.28,5.28,0,0,0,.73-.69Zm-2.56.36a1.56,1.56,0,0,0,.29-.83,3.57,3.57,0,0,0-.82-.34,3.58,3.58,0,0,1-.81-.4C655.66,375.67,656,376.05,656.93,375.94Zm-.69-1.36c.07-.37.32-.38.61-.34-.09-.28,0-.55-.19-.77a3.16,3.16,0,0,0-.73-.28c0,.34-.4.48-.31.82A.78.78,0,0,0,656.24,374.58Z" transform="translate(-601.8 -319.34)"/><path d="M663.07,366.87c.21.31.19.52-.08.87a7.26,7.26,0,0,1-1.9,1.55,4.55,4.55,0,0,0-2.71-1,8.28,8.28,0,0,1-.39-2.48.9.9,0,0,1,.13-.42c.13-.24.34-.27.49-.06a5.93,5.93,0,0,1,.29.56c.18.38.38.46.76.27a4,4,0,0,0,.4-.22c.57-.34.83-.3,1.21.22.13.18.25.36.37.55a.59.59,0,0,0,.78.27A.93.93,0,0,1,663.07,366.87Z" transform="translate(-601.8 -319.34)"/><path d="M661,370.23a6.71,6.71,0,0,0-3.08-1.16c0-.43.21-.57.6-.52a4.53,4.53,0,0,1,2.1.71c.12.09.26.17.38.27S661.22,369.9,661,370.23Z" transform="translate(-601.8 -319.34)"/><path d="M659.4,375.65a.34.34,0,0,1-.24.07v-.06l.24-.06Z" transform="translate(-601.8 -319.34)"/><path d="M659.16,375.72s-.07,0-.1,0,.06,0,.09,0Z" transform="translate(-601.8 -319.34)"/><path d="M659.48,375.58a.19.19,0,0,1,0,.07h-.06v0Z" transform="translate(-601.8 -319.34)"/><path d="M658.17,372.57l0-.09Z" transform="translate(-601.8 -319.34)"/><path d="M658.21,372.67l0-.09Z" transform="translate(-601.8 -319.34)"/></svg>